<svg width="33" height="30" viewBox="0 0 33 30" fill="none" xmlns="http://www.w3.org/2000/svg">
<path d="M13.8558 25.6575C17.053 25.6575 19.9922 24.6392 22.3372 22.9506L29.951 30L32.4 27.7325L24.7862 20.6831C26.6117 18.5103 27.7115 15.789 27.7115 12.8287C27.7115 5.75529 21.4955 0 13.8558 0C6.21605 0 0 5.75529 0 12.8287C0 19.9022 6.21605 25.6575 13.8558 25.6575ZM13.8558 3.20718C19.5869 3.20718 24.2476 7.52245 24.2476 12.8287C24.2476 18.135 19.5869 22.4503 13.8558 22.4503C8.12468 22.4503 3.46394 18.135 3.46394 12.8287C3.46394 7.52245 8.12468 3.20718 13.8558 3.20718Z" fill="white"/>
</svg>
